<mxfile host="app.diagrams.net" modified="2024-05-17T13:40:56.880Z" agent="Mozilla/5.0 (Windows NT 10.0; Win64; x64) AppleWebKit/537.36 (KHTML, like Gecko) Chrome/122.0.0.0 Safari/537.36" etag="404yp5bUctW7itA0c5MF" version="24.4.4" type="github">
  <diagram id="C5RBs43oDa-KdzZeNtuy" name="Page-1">
    <mxGraphModel dx="1434" dy="772" grid="1" gridSize="10" guides="1" tooltips="1" connect="1" arrows="1" fold="1" page="1" pageScale="1" pageWidth="827" pageHeight="1169" background="#ffffff" math="0" shadow="0">
      <root>
        <mxCell id="WIyWlLk6GJQsqaUBKTNV-0" />
        <mxCell id="WIyWlLk6GJQsqaUBKTNV-1" parent="WIyWlLk6GJQsqaUBKTNV-0" />
        <mxCell id="vR0FiZ1rlZRbBRZtbHRn-6" value="" style="rounded=0;whiteSpace=wrap;html=1;fillColor=none;dashed=1;strokeColor=#3399FF;strokeWidth=3;" vertex="1" parent="WIyWlLk6GJQsqaUBKTNV-1">
          <mxGeometry x="630" y="290" width="460" height="330" as="geometry" />
        </mxCell>
        <mxCell id="vR0FiZ1rlZRbBRZtbHRn-5" value="" style="rounded=0;whiteSpace=wrap;html=1;fillColor=none;dashed=1;strokeColor=#EA6B66;strokeWidth=3;" vertex="1" parent="WIyWlLk6GJQsqaUBKTNV-1">
          <mxGeometry x="180" y="290" width="400" height="330" as="geometry" />
        </mxCell>
        <mxCell id="ysmbLkRu9PJ4dSDrQ1_o-0" value="Client" style="swimlane;fontStyle=1;align=center;verticalAlign=top;childLayout=stackLayout;horizontal=1;startSize=26;horizontalStack=0;resizeParent=1;resizeParentMax=0;resizeLast=0;collapsible=1;marginBottom=0;whiteSpace=wrap;html=1;" parent="WIyWlLk6GJQsqaUBKTNV-1" vertex="1">
          <mxGeometry x="160" y="80" width="160" height="86" as="geometry" />
        </mxCell>
        <mxCell id="ysmbLkRu9PJ4dSDrQ1_o-1" value="+&amp;nbsp;" style="text;strokeColor=none;fillColor=none;align=left;verticalAlign=top;spacingLeft=4;spacingRight=4;overflow=hidden;rotatable=0;points=[[0,0.5],[1,0.5]];portConstraint=eastwest;whiteSpace=wrap;html=1;" parent="ysmbLkRu9PJ4dSDrQ1_o-0" vertex="1">
          <mxGeometry y="26" width="160" height="26" as="geometry" />
        </mxCell>
        <mxCell id="ysmbLkRu9PJ4dSDrQ1_o-2" value="" style="line;strokeWidth=1;fillColor=none;align=left;verticalAlign=middle;spacingTop=-1;spacingLeft=3;spacingRight=3;rotatable=0;labelPosition=right;points=[];portConstraint=eastwest;strokeColor=inherit;" parent="ysmbLkRu9PJ4dSDrQ1_o-0" vertex="1">
          <mxGeometry y="52" width="160" height="8" as="geometry" />
        </mxCell>
        <mxCell id="ysmbLkRu9PJ4dSDrQ1_o-3" value="+&amp;nbsp;" style="text;strokeColor=none;fillColor=none;align=left;verticalAlign=top;spacingLeft=4;spacingRight=4;overflow=hidden;rotatable=0;points=[[0,0.5],[1,0.5]];portConstraint=eastwest;whiteSpace=wrap;html=1;" parent="ysmbLkRu9PJ4dSDrQ1_o-0" vertex="1">
          <mxGeometry y="60" width="160" height="26" as="geometry" />
        </mxCell>
        <mxCell id="ysmbLkRu9PJ4dSDrQ1_o-9" value="" style="group" parent="WIyWlLk6GJQsqaUBKTNV-1" vertex="1" connectable="0">
          <mxGeometry x="320" y="310" width="110" height="70" as="geometry" />
        </mxCell>
        <object label="«interface»&lt;br&gt;&lt;b&gt;Creator&lt;/b&gt;" a="" id="ysmbLkRu9PJ4dSDrQ1_o-5">
          <mxCell style="html=1;whiteSpace=wrap;" parent="ysmbLkRu9PJ4dSDrQ1_o-9" vertex="1">
            <mxGeometry width="110" height="50" as="geometry" />
          </mxCell>
        </object>
        <mxCell id="ysmbLkRu9PJ4dSDrQ1_o-8" value="+ factory() : Light" style="html=1;whiteSpace=wrap;align=left;" parent="ysmbLkRu9PJ4dSDrQ1_o-9" vertex="1">
          <mxGeometry y="50" width="110" height="20" as="geometry" />
        </mxCell>
        <mxCell id="ysmbLkRu9PJ4dSDrQ1_o-19" style="edgeStyle=orthogonalEdgeStyle;rounded=0;orthogonalLoop=1;jettySize=auto;html=1;exitX=1;exitY=0.5;exitDx=0;exitDy=0;entryX=0.5;entryY=0;entryDx=0;entryDy=0;dashed=1;endArrow=open;endFill=0;" parent="WIyWlLk6GJQsqaUBKTNV-1" source="ysmbLkRu9PJ4dSDrQ1_o-1" target="ysmbLkRu9PJ4dSDrQ1_o-13" edge="1">
          <mxGeometry relative="1" as="geometry" />
        </mxCell>
        <mxCell id="ysmbLkRu9PJ4dSDrQ1_o-20" style="edgeStyle=orthogonalEdgeStyle;rounded=0;orthogonalLoop=1;jettySize=auto;html=1;entryX=0.5;entryY=0;entryDx=0;entryDy=0;dashed=1;endArrow=open;endFill=0;" parent="WIyWlLk6GJQsqaUBKTNV-1" source="ysmbLkRu9PJ4dSDrQ1_o-3" target="ysmbLkRu9PJ4dSDrQ1_o-5" edge="1">
          <mxGeometry relative="1" as="geometry" />
        </mxCell>
        <mxCell id="ysmbLkRu9PJ4dSDrQ1_o-39" style="edgeStyle=orthogonalEdgeStyle;rounded=0;orthogonalLoop=1;jettySize=auto;html=1;dashed=1;endArrow=open;endFill=0;" parent="WIyWlLk6GJQsqaUBKTNV-1" source="ysmbLkRu9PJ4dSDrQ1_o-21" edge="1">
          <mxGeometry relative="1" as="geometry">
            <mxPoint x="360" y="380" as="targetPoint" />
          </mxGeometry>
        </mxCell>
        <mxCell id="ysmbLkRu9PJ4dSDrQ1_o-21" value="BulbCreator" style="swimlane;fontStyle=1;align=center;verticalAlign=top;childLayout=stackLayout;horizontal=1;startSize=26;horizontalStack=0;resizeParent=1;resizeParentMax=0;resizeLast=0;collapsible=1;marginBottom=0;whiteSpace=wrap;html=1;" parent="WIyWlLk6GJQsqaUBKTNV-1" vertex="1">
          <mxGeometry x="200" y="440" width="160" height="86" as="geometry" />
        </mxCell>
        <mxCell id="ysmbLkRu9PJ4dSDrQ1_o-22" value="+" style="text;strokeColor=none;fillColor=none;align=left;verticalAlign=top;spacingLeft=4;spacingRight=4;overflow=hidden;rotatable=0;points=[[0,0.5],[1,0.5]];portConstraint=eastwest;whiteSpace=wrap;html=1;" parent="ysmbLkRu9PJ4dSDrQ1_o-21" vertex="1">
          <mxGeometry y="26" width="160" height="26" as="geometry" />
        </mxCell>
        <mxCell id="ysmbLkRu9PJ4dSDrQ1_o-23" value="" style="line;strokeWidth=1;fillColor=none;align=left;verticalAlign=middle;spacingTop=-1;spacingLeft=3;spacingRight=3;rotatable=0;labelPosition=right;points=[];portConstraint=eastwest;strokeColor=inherit;" parent="ysmbLkRu9PJ4dSDrQ1_o-21" vertex="1">
          <mxGeometry y="52" width="160" height="8" as="geometry" />
        </mxCell>
        <mxCell id="ysmbLkRu9PJ4dSDrQ1_o-24" value="+ factory() : Light" style="text;strokeColor=none;fillColor=none;align=left;verticalAlign=top;spacingLeft=4;spacingRight=4;overflow=hidden;rotatable=0;points=[[0,0.5],[1,0.5]];portConstraint=eastwest;whiteSpace=wrap;html=1;" parent="ysmbLkRu9PJ4dSDrQ1_o-21" vertex="1">
          <mxGeometry y="60" width="160" height="26" as="geometry" />
        </mxCell>
        <mxCell id="ysmbLkRu9PJ4dSDrQ1_o-25" value="" style="group" parent="WIyWlLk6GJQsqaUBKTNV-1" vertex="1" connectable="0">
          <mxGeometry x="800" y="310" width="110" height="90" as="geometry" />
        </mxCell>
        <mxCell id="ysmbLkRu9PJ4dSDrQ1_o-12" value="" style="group" parent="ysmbLkRu9PJ4dSDrQ1_o-25" vertex="1" connectable="0">
          <mxGeometry width="110" height="70" as="geometry" />
        </mxCell>
        <object label="«interface»&lt;br&gt;&lt;b&gt;Light&lt;/b&gt;" a="" id="ysmbLkRu9PJ4dSDrQ1_o-13">
          <mxCell style="html=1;whiteSpace=wrap;" parent="ysmbLkRu9PJ4dSDrQ1_o-12" vertex="1">
            <mxGeometry width="110" height="50" as="geometry" />
          </mxCell>
        </object>
        <mxCell id="ysmbLkRu9PJ4dSDrQ1_o-14" value="+ TurnOn()&amp;nbsp;" style="html=1;whiteSpace=wrap;align=left;" parent="ysmbLkRu9PJ4dSDrQ1_o-12" vertex="1">
          <mxGeometry y="50" width="110" height="20" as="geometry" />
        </mxCell>
        <mxCell id="ysmbLkRu9PJ4dSDrQ1_o-15" value="+ TurnOff()&amp;nbsp;" style="html=1;whiteSpace=wrap;align=left;" parent="ysmbLkRu9PJ4dSDrQ1_o-25" vertex="1">
          <mxGeometry y="70" width="110" height="20" as="geometry" />
        </mxCell>
        <mxCell id="ysmbLkRu9PJ4dSDrQ1_o-26" value="TubeCreator" style="swimlane;fontStyle=1;align=center;verticalAlign=top;childLayout=stackLayout;horizontal=1;startSize=26;horizontalStack=0;resizeParent=1;resizeParentMax=0;resizeLast=0;collapsible=1;marginBottom=0;whiteSpace=wrap;html=1;" parent="WIyWlLk6GJQsqaUBKTNV-1" vertex="1">
          <mxGeometry x="410" y="440" width="160" height="86" as="geometry" />
        </mxCell>
        <mxCell id="ysmbLkRu9PJ4dSDrQ1_o-27" value="+&amp;nbsp;" style="text;strokeColor=none;fillColor=none;align=left;verticalAlign=top;spacingLeft=4;spacingRight=4;overflow=hidden;rotatable=0;points=[[0,0.5],[1,0.5]];portConstraint=eastwest;whiteSpace=wrap;html=1;" parent="ysmbLkRu9PJ4dSDrQ1_o-26" vertex="1">
          <mxGeometry y="26" width="160" height="26" as="geometry" />
        </mxCell>
        <mxCell id="ysmbLkRu9PJ4dSDrQ1_o-28" value="" style="line;strokeWidth=1;fillColor=none;align=left;verticalAlign=middle;spacingTop=-1;spacingLeft=3;spacingRight=3;rotatable=0;labelPosition=right;points=[];portConstraint=eastwest;strokeColor=inherit;" parent="ysmbLkRu9PJ4dSDrQ1_o-26" vertex="1">
          <mxGeometry y="52" width="160" height="8" as="geometry" />
        </mxCell>
        <mxCell id="ysmbLkRu9PJ4dSDrQ1_o-29" value="+ factory() : Light" style="text;strokeColor=none;fillColor=none;align=left;verticalAlign=top;spacingLeft=4;spacingRight=4;overflow=hidden;rotatable=0;points=[[0,0.5],[1,0.5]];portConstraint=eastwest;whiteSpace=wrap;html=1;" parent="ysmbLkRu9PJ4dSDrQ1_o-26" vertex="1">
          <mxGeometry y="60" width="160" height="26" as="geometry" />
        </mxCell>
        <mxCell id="vR0FiZ1rlZRbBRZtbHRn-3" style="edgeStyle=orthogonalEdgeStyle;rounded=0;orthogonalLoop=1;jettySize=auto;html=1;exitX=0.5;exitY=0;exitDx=0;exitDy=0;entryX=0.5;entryY=1;entryDx=0;entryDy=0;dashed=1;endArrow=open;endFill=0;" edge="1" parent="WIyWlLk6GJQsqaUBKTNV-1" source="ysmbLkRu9PJ4dSDrQ1_o-30" target="ysmbLkRu9PJ4dSDrQ1_o-15">
          <mxGeometry relative="1" as="geometry" />
        </mxCell>
        <mxCell id="ysmbLkRu9PJ4dSDrQ1_o-30" value="BulbLight" style="swimlane;fontStyle=1;align=center;verticalAlign=top;childLayout=stackLayout;horizontal=1;startSize=26;horizontalStack=0;resizeParent=1;resizeParentMax=0;resizeLast=0;collapsible=1;marginBottom=0;whiteSpace=wrap;html=1;" parent="WIyWlLk6GJQsqaUBKTNV-1" vertex="1">
          <mxGeometry x="650" y="440" width="160" height="86" as="geometry" />
        </mxCell>
        <mxCell id="ysmbLkRu9PJ4dSDrQ1_o-31" value="+ TurnOn()&amp;nbsp;" style="text;strokeColor=none;fillColor=none;align=left;verticalAlign=top;spacingLeft=4;spacingRight=4;overflow=hidden;rotatable=0;points=[[0,0.5],[1,0.5]];portConstraint=eastwest;whiteSpace=wrap;html=1;" parent="ysmbLkRu9PJ4dSDrQ1_o-30" vertex="1">
          <mxGeometry y="26" width="160" height="26" as="geometry" />
        </mxCell>
        <mxCell id="ysmbLkRu9PJ4dSDrQ1_o-32" value="" style="line;strokeWidth=1;fillColor=none;align=left;verticalAlign=middle;spacingTop=-1;spacingLeft=3;spacingRight=3;rotatable=0;labelPosition=right;points=[];portConstraint=eastwest;strokeColor=inherit;" parent="ysmbLkRu9PJ4dSDrQ1_o-30" vertex="1">
          <mxGeometry y="52" width="160" height="8" as="geometry" />
        </mxCell>
        <mxCell id="ysmbLkRu9PJ4dSDrQ1_o-33" value="+ TurnOff()&amp;nbsp;" style="text;strokeColor=none;fillColor=none;align=left;verticalAlign=top;spacingLeft=4;spacingRight=4;overflow=hidden;rotatable=0;points=[[0,0.5],[1,0.5]];portConstraint=eastwest;whiteSpace=wrap;html=1;" parent="ysmbLkRu9PJ4dSDrQ1_o-30" vertex="1">
          <mxGeometry y="60" width="160" height="26" as="geometry" />
        </mxCell>
        <mxCell id="vR0FiZ1rlZRbBRZtbHRn-4" style="edgeStyle=orthogonalEdgeStyle;rounded=0;orthogonalLoop=1;jettySize=auto;html=1;exitX=0.5;exitY=0;exitDx=0;exitDy=0;entryX=0.5;entryY=1;entryDx=0;entryDy=0;dashed=1;endArrow=open;endFill=0;" edge="1" parent="WIyWlLk6GJQsqaUBKTNV-1" source="ysmbLkRu9PJ4dSDrQ1_o-34" target="ysmbLkRu9PJ4dSDrQ1_o-15">
          <mxGeometry relative="1" as="geometry" />
        </mxCell>
        <mxCell id="ysmbLkRu9PJ4dSDrQ1_o-34" value="TubeLight" style="swimlane;fontStyle=1;align=center;verticalAlign=top;childLayout=stackLayout;horizontal=1;startSize=26;horizontalStack=0;resizeParent=1;resizeParentMax=0;resizeLast=0;collapsible=1;marginBottom=0;whiteSpace=wrap;html=1;" parent="WIyWlLk6GJQsqaUBKTNV-1" vertex="1">
          <mxGeometry x="920" y="440" width="160" height="86" as="geometry" />
        </mxCell>
        <mxCell id="ysmbLkRu9PJ4dSDrQ1_o-35" value="+ TurnOn()&amp;nbsp;" style="text;strokeColor=none;fillColor=none;align=left;verticalAlign=top;spacingLeft=4;spacingRight=4;overflow=hidden;rotatable=0;points=[[0,0.5],[1,0.5]];portConstraint=eastwest;whiteSpace=wrap;html=1;" parent="ysmbLkRu9PJ4dSDrQ1_o-34" vertex="1">
          <mxGeometry y="26" width="160" height="26" as="geometry" />
        </mxCell>
        <mxCell id="ysmbLkRu9PJ4dSDrQ1_o-36" value="" style="line;strokeWidth=1;fillColor=none;align=left;verticalAlign=middle;spacingTop=-1;spacingLeft=3;spacingRight=3;rotatable=0;labelPosition=right;points=[];portConstraint=eastwest;strokeColor=inherit;" parent="ysmbLkRu9PJ4dSDrQ1_o-34" vertex="1">
          <mxGeometry y="52" width="160" height="8" as="geometry" />
        </mxCell>
        <mxCell id="ysmbLkRu9PJ4dSDrQ1_o-37" value="+ TurnOff()&amp;nbsp;" style="text;strokeColor=none;fillColor=none;align=left;verticalAlign=top;spacingLeft=4;spacingRight=4;overflow=hidden;rotatable=0;points=[[0,0.5],[1,0.5]];portConstraint=eastwest;whiteSpace=wrap;html=1;" parent="ysmbLkRu9PJ4dSDrQ1_o-34" vertex="1">
          <mxGeometry y="60" width="160" height="26" as="geometry" />
        </mxCell>
        <mxCell id="ysmbLkRu9PJ4dSDrQ1_o-38" style="edgeStyle=orthogonalEdgeStyle;rounded=0;orthogonalLoop=1;jettySize=auto;html=1;entryX=0;entryY=0.5;entryDx=0;entryDy=0;dashed=1;endArrow=open;endFill=0;" parent="WIyWlLk6GJQsqaUBKTNV-1" source="ysmbLkRu9PJ4dSDrQ1_o-5" target="ysmbLkRu9PJ4dSDrQ1_o-13" edge="1">
          <mxGeometry relative="1" as="geometry" />
        </mxCell>
        <mxCell id="ysmbLkRu9PJ4dSDrQ1_o-41" style="edgeStyle=orthogonalEdgeStyle;rounded=0;orthogonalLoop=1;jettySize=auto;html=1;exitX=0.5;exitY=0;exitDx=0;exitDy=0;entryX=0.364;entryY=1;entryDx=0;entryDy=0;entryPerimeter=0;dashed=1;endArrow=open;endFill=0;" parent="WIyWlLk6GJQsqaUBKTNV-1" source="ysmbLkRu9PJ4dSDrQ1_o-26" target="ysmbLkRu9PJ4dSDrQ1_o-8" edge="1">
          <mxGeometry relative="1" as="geometry" />
        </mxCell>
        <mxCell id="vR0FiZ1rlZRbBRZtbHRn-1" style="edgeStyle=orthogonalEdgeStyle;rounded=0;orthogonalLoop=1;jettySize=auto;html=1;entryX=0.475;entryY=1.115;entryDx=0;entryDy=0;entryPerimeter=0;dashed=1;endArrow=open;endFill=0;" edge="1" parent="WIyWlLk6GJQsqaUBKTNV-1" source="ysmbLkRu9PJ4dSDrQ1_o-21" target="ysmbLkRu9PJ4dSDrQ1_o-33">
          <mxGeometry relative="1" as="geometry">
            <Array as="points">
              <mxPoint x="280" y="570" />
              <mxPoint x="726" y="570" />
            </Array>
          </mxGeometry>
        </mxCell>
        <mxCell id="vR0FiZ1rlZRbBRZtbHRn-2" style="edgeStyle=orthogonalEdgeStyle;rounded=0;orthogonalLoop=1;jettySize=auto;html=1;entryX=0.494;entryY=1;entryDx=0;entryDy=0;entryPerimeter=0;exitX=0.488;exitY=1;exitDx=0;exitDy=0;exitPerimeter=0;dashed=1;endArrow=open;endFill=0;" edge="1" parent="WIyWlLk6GJQsqaUBKTNV-1" source="ysmbLkRu9PJ4dSDrQ1_o-29" target="ysmbLkRu9PJ4dSDrQ1_o-37">
          <mxGeometry relative="1" as="geometry">
            <mxPoint x="560" y="540" as="sourcePoint" />
            <Array as="points">
              <mxPoint x="490" y="526" />
              <mxPoint x="490" y="600" />
              <mxPoint x="999" y="600" />
            </Array>
          </mxGeometry>
        </mxCell>
      </root>
    </mxGraphModel>
  </diagram>
</mxfile>
